<?xml version="1.0" standalone="no"?>
<!DOCTYPE svg PUBLIC "-//W3C//DTD SVG 20010904//EN"
 "http://www.w3.org/TR/2001/REC-SVG-20010904/DTD/svg10.dtd">
<svg version="1.0" xmlns="http://www.w3.org/2000/svg"
 width="420.000000pt" height="420.000000pt" viewBox="0 0 420.000000 420.000000"
 preserveAspectRatio="xMidYMid meet">
<metadata>
Created by potrace 1.14, written by Peter Selinger 2001-2017
</metadata>
<g transform="translate(0.000000,420.000000) scale(0.100000,-0.100000)"
fill="#000000" stroke="none">
<path d="M780 2816 c-95 -223 -172 -409 -171 -413 0 -4 99 -10 219 -13 l219
-5 -121 -285 -122 -285 -228 -5 -228 -5 -174 -409 c-96 -225 -174 -410 -174
-412 0 -2 501 -3 1112 -2 l1113 3 138 326 139 327 337 5 c410 6 525 22 710 99
154 65 308 196 406 347 93 143 190 371 219 514 57 273 -61 474 -331 568 -140
48 -159 49 -1570 49 l-1321 0 -172 -404z m2960 148 c95 -29 150 -63 185 -112
27 -40 30 -51 30 -125 0 -97 -28 -191 -110 -363 -66 -140 -117 -215 -193 -286
-73 -67 -146 -110 -244 -144 -161 -55 -183 -56 -873 -61 l-641 -5 -61 -144
-61 -144 224 0 c173 0 224 -3 224 -12 0 -7 -33 -89 -73 -183 l-73 -170 -862
-3 c-474 -1 -862 2 -862 6 0 5 33 87 74 183 l74 174 228 5 228 5 218 510 c120
281 218 513 218 518 0 4 -99 7 -220 7 -121 0 -220 3 -220 7 0 3 34 87 76 185
l76 179 1287 -3 c1261 -3 1287 -4 1351 -24z"/>
<path d="M2137 2438 c-43 -101 -77 -187 -77 -191 0 -5 197 -7 438 -5 l437 3
67 33 c78 38 139 102 162 169 20 58 20 76 1 112 -30 59 -51 61 -523 61 l-428
0 -77 -182z"/>
</g>
</svg>
